Coordinates
version=1
nRows=17
nColumns=36
inDegrees=yes

Units are S.I. units (second, meters, Newtons, ...)
If the header above contains a line with 'inDegrees', this indicates whether rotational values are in degrees (yes) or radians (no).

endheader
time	pelvis_tilt	pelvis_list	pelvis_rotation	pelvis_tx	pelvis_ty	pelvis_tz	hip_flexion_r	hip_adduction_r	hip_rotation_r	knee_angle_r	knee_angle_r_beta	ankle_angle_r	subtalar_angle_r	mtp_angle_r	hip_flexion_l	hip_adduction_l	hip_rotation_l	knee_angle_l	knee_angle_l_beta	ankle_angle_l	subtalar_angle_l	mtp_angle_l	lumbar_extension	lumbar_bending	lumbar_rotation	arm_flex_r	arm_add_r	arm_rot_r	elbow_flex_r	pro_sup_r	arm_flex_l	arm_add_l	arm_rot_l	elbow_flex_l	pro_sup_l
      0.00000000	      6.39690196	     -3.81291528	     -2.58969349	     -0.93763796	      1.26392552	     -0.07941431	     -7.30900967	      4.19286938	      0.96635276	      5.10161215	      0.08903993	      2.37112934	     -8.64854262	     -5.98415542	     -9.53149223	     -3.86951262	      1.58650097	      3.53045531	      0.06161807	     10.15851454	     -2.14402487	     -5.98415542	    -16.89965201	      3.66867724	     -0.62378030	     10.63681876	     -5.49811525	     28.01404074	     19.92104598	     70.48581959	      7.47729307	     -5.47146138	     27.69029553	     20.07089348	     61.57857851
      0.00416670	      4.70111507	     -3.28402459	     -2.21868748	     -0.93485960	      1.26344570	     -0.08035697	     -5.73942900	      4.03654553	      1.87636826	      4.84286863	      0.08452400	      3.21085800	     -7.57965296	     -6.12381815	     -8.12435090	     -3.09949422	      2.95732053	      2.51004351	      0.04380852	      9.00853066	     -0.78711654	     -6.12381815	    -14.54793986	      3.07043290	     -0.75994245	      9.44216282	     -5.38690884	     27.61948403	     20.61503103	     69.69988120	      7.04055894	     -5.34633789	     27.44117070	     20.85403241	     61.49468234
      0.00833330	      3.46923418	     -2.50453021	     -2.32479724	     -0.93401104	      1.26194404	     -0.07939171	     -4.78519664	      3.36932906	      0.39167310	      3.95437530	      0.06901687	      3.28603227	     -6.27307436	     -6.44521401	     -6.97738314	     -2.28662241	      3.10428856	      2.09051841	      0.03648643	      8.32728577	     -0.45006260	     -6.44521401	    -12.86410213	      1.92350784	     -0.82009928	      9.14156282	     -4.48289983	     26.08847376	     19.59310308	     68.68735118	      7.30242509	     -5.30330007	     27.11919829	     19.33765324	     61.59050509
      0.01250000	      3.74277530	     -2.25732936	     -2.26550855	     -0.93439715	      1.26097732	     -0.07893870	     -5.44278051	      3.06707602	     -0.17923567	      3.27343736	      0.05713226	      3.91322321	     -5.02001484	     -7.06944827	     -7.62595493	     -1.96011851	      3.05884969	      1.34669055	      0.02350418	      7.76163660	     -0.53065748	     -7.06944827	    -13.34040587	      1.39465038	     -0.12624700	      8.12810182	     -3.66743150	     16.54714670	     20.40490933	     82.46627159	      7.97520491	     -5.24337074	     26.00152255	     18.68864679	     68.97666024
      0.01666670	      3.66215776	     -2.14346598	     -2.17953566	     -0.93455594	      1.26042975	     -0.07885539	     -5.64285416	      2.99458010	     -0.25792133	      2.80373320	      0.04893438	      4.16345345	     -4.78016759	     -7.17439208	     -7.67900379	     -1.84562681	      2.74236567	      0.98980736	      0.01727540	      7.80341072	     -0.15879962	     -7.17439208	    -13.32805194	      1.17728932	      0.01882107	      8.03570330	     -3.39512783	     15.55981329	     20.62563281	     79.72926472	      8.06154138	     -5.18835426	     24.97572518	     18.54694907	     67.70960282
      0.02083330	      3.79070472	     -2.03989834	     -2.00942539	     -0.93341846	      1.26095308	     -0.07825601	     -6.05933131	      2.93105368	     -0.18579068	      2.41604380	      0.04216792	      4.09037499	     -5.01185472	     -7.27942964	     -7.90323323	     -1.76122879	      3.00654138	      0.87908408	      0.01534291	      7.49668037	     -0.90036134	     -7.27942964	    -13.52489681	      0.97898258	      0.08265690	      7.85523842	     -3.16181481	     14.68184729	     21.02402340	     76.45259433	      8.13291162	     -5.16756186	     23.67603201	     18.66749969	     66.16334784
      0.02500000	      3.87178720	     -1.98601110	     -1.88456234	     -0.93336366	      1.26131375	     -0.07811100	     -6.37972747	      2.89820009	     -0.31340689	      2.09288998	      0.03652782	      4.10452336	     -4.71862436	     -7.40813573	     -8.02412467	     -1.74147668	      2.96200239	      0.79048269	      0.01379653	      7.47917476	     -0.98150041	     -7.40813573	    -13.71791900	      0.88288346	      0.15284449	      7.65454180	     -3.00676051	     12.15211244	     21.49714177	     85.26417526	      8.10040507	     -5.03933286	     20.96099876	     18.89751127	     71.42935608
      0.02916670	      3.85544558	     -1.93721668	     -1.73280503	     -0.93400560	      1.25938572	     -0.07909781	     -6.49689906	      2.86442745	     -0.20238639	      1.90510260	      0.03325031	      4.05837117	     -4.91698606	     -7.48033808	     -7.98358238	     -1.69552382	      3.02774359	      0.76334908	      0.01332295	      7.47987880	     -1.22540488	     -7.48033808	    -13.71113006	      0.84082759	      0.18461915	      7.65365471	     -3.06062256	     12.53421428	     21.53004622	     84.64002333	      8.19501400	     -4.98091051	     20.38300685	     18.94314784	     71.85927983
      0.03333330	      3.93670514	     -1.94045170	     -1.66791491	     -0.93347629	      1.25931277	     -0.07883393	     -6.71734702	      2.86715954	     -0.07578872	      1.75468154	      0.03062497	      3.89839580	     -5.01563906	     -7.49021147	     -8.06755726	     -1.69380184	      3.02933335	      0.72937864	      0.01273006	      7.54222592	     -1.04204775	     -7.49021147	    -13.79584966	      0.82504195	      0.14740445	      7.63051008	     -3.24669045	     14.52390859	     21.64071661	     79.88270142	      8.19188500	     -4.99344455	     20.54303734	     19.14963030	     69.06230664
      0.03750000	      3.85374254	     -1.92720401	     -1.61478148	     -0.93265137	      1.26113226	     -0.07894061	     -6.72099803	      2.84453818	     -0.18431627	      1.63474334	      0.02853165	      3.86621612	     -5.01702787	     -7.49707852	     -7.99595839	     -1.69059440	      3.09413523	      0.70542088	      0.01231192	      7.30763958	     -1.26263267	     -7.49707852	    -13.60095895	      0.86106967	     -0.07384060	      7.87629883	     -3.43575995	     17.08337481	     21.08264059	     77.84605092	      8.14923174	     -5.06572687	     21.59840664	     19.07864882	     68.09160998
      0.04166670	      3.82160439	     -1.93478734	     -1.61937347	     -0.93328305	      1.26107516	     -0.07878503	     -6.76945828	      2.85414447	     -0.38250697	      1.45113408	      0.02532707	      3.73494712	     -4.83363377	     -7.49802441	     -7.93833203	     -1.71885591	      2.60529618	      0.69414152	      0.01211506	      7.57714988	     -0.42694196	     -7.49802441	    -13.59377952	      0.86635163	     -0.00703998	      7.83728585	     -3.31218574	     16.40152789	     21.06961080	     74.55469346	      8.13945456	     -4.92316547	     20.74465364	     19.12788741	     66.34126886
      0.04583330	      3.86293261	     -1.94976603	     -1.58889735	     -0.93286448	      1.26038883	     -0.07857514	     -6.86313307	      2.88379132	     -0.34511965	      1.34951980	      0.02355356	      3.59458146	     -5.04814621	     -7.49950205	     -7.94242027	     -1.72584556	      3.01742063	      0.63093379	      0.01101187	      7.16504245	     -1.22040036	     -7.49950205	    -13.75185062	      0.89371792	     -0.00293209	      7.65426499	     -3.34294154	     14.10823970	     21.46461109	     84.35718191	      8.15294004	     -4.92912042	     19.68572603	     19.22276038	     72.15838958
      0.05000000	      3.84722518	     -1.98290986	     -1.63803634	     -0.93449899	      1.25994396	     -0.07975910	     -6.84804094	      2.91411188	     -0.34115585	      1.25910726	      0.02197557	      3.40603053	     -5.26926311	     -7.49981309	     -7.86924725	     -1.74197973	      2.85782101	      0.58957738	      0.01029007	      7.19651980	     -1.04806395	     -7.49981309	    -13.77161600	      0.94321131	     -0.08011755	      7.89430654	     -3.58419258	     16.80395153	     21.20422266	     79.40690195	      8.20147179	     -5.01782373	     20.75965696	     19.25702251	     69.56036838
      0.05416670	      3.73693826	     -1.98590802	     -1.61827001	     -0.93425873	      1.26200810	     -0.08037896	     -6.70242970	      2.90169844	     -0.58117421	      1.18592397	      0.02069828	      3.26193907	     -5.26378478	     -7.49995982	     -7.69720133	     -1.74786618	      2.89592778	      0.56348943	      0.00983475	      6.97909900	     -1.17446898	     -7.49995982	    -13.64687315	      0.98307423	     -0.20914508	      8.01539573	     -3.71839414	     18.08937615	     20.94147083	     78.88295440	      8.25181720	     -5.10338932	     21.82063039	     19.13083496	     69.06984588
      0.05833330	      3.63186829	     -1.99741446	     -1.63927848	     -0.93389063	      1.26231880	     -0.07986915	     -6.60011382	      2.90053594	     -0.69519588	      1.09559759	      0.01912179	      3.12514554	     -5.15659542	     -7.49996047	     -7.59348527	     -1.76783549	      2.77369121	      0.54711207	      0.00954891	      6.75331451	     -1.13425282	     -7.49996047	    -13.54256584	      1.01275543	     -0.21843317	      7.95565964	     -3.78042387	     17.96589152	     21.05840373	     78.82770269	      8.20038635	     -5.11439174	     21.73878817	     19.24564936	     69.04633033
      0.06250000	      3.64402532	     -2.00131288	     -1.64167587	     -0.93569930	      1.26496925	     -0.07972676	     -6.57666221	      2.88707235	     -0.69898256	      1.08594115	      0.01895325	      3.12318767	     -5.15694514	     -7.49996048	     -7.57873028	     -1.77649687	      2.76949690	      0.56940626	      0.00993801	      6.74902340	     -1.13475599	     -7.49996048	    -13.54462103	      1.01586476	     -0.22255525	      7.95214070	     -3.78178150	     17.96441088	     21.05771137	     78.82839740	      8.20456432	     -5.11336589	     21.73792001	     19.24691265	     69.04680914
      0.06666670	      3.63376744	     -2.00745190	     -1.62050842	     -0.93515968	      1.26225277	     -0.07877113	     -6.57557304	      2.89440687	     -0.96979212	      0.97902808	      0.01708726	      2.99647368	     -4.70000766	     -7.49996522	     -7.56851012	     -1.80493967	      2.55812490	      0.51137058	      0.00892510	      6.29702757	     -1.12963901	     -7.49996522	    -13.75863310	      1.05997752	     -0.19647715	      8.05329476	     -3.79337181	     17.37331376	     21.14852527	     78.46297930	      8.40548733	     -5.07259232	     21.38485768	     19.26817292	     68.93127491
